<svg width="215" height="204" viewBox="0 0 215 204" fill="none" xmlns="http://www.w3.org/2000/svg">
<mask id="mask0_101_21000" style="mask-type:alpha" maskUnits="userSpaceOnUse" x="8" y="8" width="199" height="187">
<path fill-rule="evenodd" clip-rule="evenodd" d="M27.506 85.8662C23.8799 87.9598 22.6143 92.6829 24.7079 96.309L70.5757 175.754C72.6693 179.381 77.3924 180.646 81.0185 178.553L186.946 117.395C190.572 115.302 191.837 110.579 189.744 106.953L143.876 27.5072C141.783 23.8811 137.059 22.6155 133.433 24.7091L27.506 85.8662ZM11.467 103.954C5.1514 93.0148 8.92249 78.9409 19.8614 72.6253L125.789 11.4682C136.728 5.15262 150.801 8.92371 157.117 19.8626L202.985 99.308C209.3 110.247 205.529 124.321 194.59 130.636L88.6632 191.794C77.7243 198.109 63.6504 194.338 57.3348 183.399L11.467 103.954Z" fill="#F4F4F4"/>
<path fill-rule="evenodd" clip-rule="evenodd" d="M10.4735 99.4662C10.8409 95.2602 14.5484 92.1483 18.7544 92.5157L106.384 100.17L143.57 20.4532C145.355 16.627 149.904 14.9722 153.73 16.757C157.556 18.5418 159.211 23.0905 157.426 26.9167L117.978 111.483C116.62 114.395 113.586 116.147 110.385 115.867L17.424 107.747C13.218 107.38 10.1061 103.672 10.4735 99.4662Z" fill="#F4F4F4"/>
</mask>
<g mask="url(#mask0_101_21000)">
<rect x="-26" width="219" height="173" fill="#F4F4F4"/>
</g>
</svg>
