<svg width="227" height="237" viewBox="0 0 227 237" fill="none" xmlns="http://www.w3.org/2000/svg">
<mask id="mask0_101_21005" style="mask-type:alpha" maskUnits="userSpaceOnUse" x="19" y="20" width="188" height="212">
<path fill-rule="evenodd" clip-rule="evenodd" d="M19.9916 104.562C20.9183 100.946 23.2437 97.8455 26.4563 95.9435L87.0215 60.0847C88.6278 59.1336 90.546 58.8596 92.3543 59.323L140.566 71.6761C142.375 72.1395 143.925 73.3022 144.876 74.9085L195.078 159.7C196.98 162.912 197.528 166.749 196.602 170.365C195.675 173.982 193.349 177.082 190.137 178.985L105.346 229.187C102.133 231.089 98.2965 231.637 94.6799 230.71C91.0633 229.784 87.963 227.458 86.0609 224.246L21.515 115.228C19.613 112.016 19.065 108.179 19.9916 104.562ZM91.6845 73.683L33.6281 108.057L98.1739 217.074L182.965 166.871L134.248 84.5889L91.6845 73.683Z" fill="#F4F4F4"/>
<path fill-rule="evenodd" clip-rule="evenodd" d="M29.8745 65.9932C30.8011 62.3766 33.1265 59.2762 36.3391 57.3741L96.9043 21.5153C98.5106 20.5643 100.429 20.2903 102.237 20.7536L150.449 33.1068C152.257 33.5701 153.808 34.7328 154.759 36.3391L204.961 121.13C206.863 124.343 207.411 128.18 206.484 131.796C205.558 135.413 203.232 138.513 200.02 140.415L181.85 151.173C178.505 153.153 174.188 152.047 172.208 148.702C170.227 145.357 171.333 141.04 174.678 139.06L192.848 128.302L144.131 46.0196L101.567 35.1137L43.5109 69.4872L54.2685 87.6567C56.2489 91.0016 55.1428 95.3187 51.7979 97.2991C48.453 99.2795 44.1359 98.1734 42.1555 94.8285L31.3978 76.6589C29.4958 73.4464 28.9478 69.6098 29.8745 65.9932Z" fill="#F4F4F4"/>
<path fill-rule="evenodd" clip-rule="evenodd" d="M87.6567 157.864C85.6763 154.519 86.7824 150.202 90.1273 148.221L126.466 126.706C129.811 124.726 134.128 125.832 136.109 129.177C138.089 132.522 136.983 136.839 133.638 138.819L97.2991 160.334C93.9542 162.315 89.6371 161.209 87.6567 157.864Z" fill="#F4F4F4"/>
<path fill-rule="evenodd" clip-rule="evenodd" d="M102 182.09C100.02 178.745 101.126 174.428 104.471 172.447L140.81 150.932C144.155 148.952 148.472 150.058 150.453 153.403C152.433 156.748 151.327 161.065 147.982 163.045L111.643 184.56C108.298 186.541 103.981 185.435 102 182.09Z" fill="#F4F4F4"/>
</mask>
<g mask="url(#mask0_101_21005)">
<rect x="8" y="-10.0005" width="188" height="197" fill="#F4F4F4"/>
</g>
</svg>
